<?xml version="1.0" encoding="utf-8"?>
<!-- Generator: Adobe Illustrator 22.1.0, SVG Export Plug-In . SVG Version: 6.00 Build 0)  -->
<svg version="1.1" id="FBO_Logo" xmlns="http://www.w3.org/2000/svg" xmlns:xlink="http://www.w3.org/1999/xlink" x="0px" y="0px"
	 viewBox="0 0 595 134" style="enable-background:new 0 0 595 134;" xml:space="preserve">
<style type="text/css">
	.st0{fill:#FFFFFF;}
</style>
<g id="Guides">
</g>
<g id="FIRST_BAPTIST_ORLANDO">
	<g id="ORLANDO">
		<path class="st0" d="M579.1,80.6c-1.8,0-3.5-0.3-5-1c-1.5-0.6-2.9-1.5-4-2.6c-1.1-1.1-2-2.4-2.6-3.8c-0.6-1.5-1-3-1-4.7v-0.1
			c0-1.7,0.3-3.2,1-4.7c0.6-1.5,1.5-2.8,2.7-3.9c1.1-1.1,2.5-2,4-2.6c1.5-0.6,3.2-1,5-1c1.8,0,3.5,0.3,5,1c1.5,0.6,2.9,1.5,4,2.6
			c1.1,1.1,2,2.4,2.6,3.8c0.6,1.5,1,3,1,4.7v0.1c0,1.7-0.3,3.2-1,4.7c-0.6,1.5-1.5,2.8-2.7,3.9c-1.1,1.1-2.5,2-4,2.6
			C582.5,80.3,580.9,80.6,579.1,80.6z M579.1,74.8c0.9,0,1.7-0.2,2.4-0.5c0.7-0.3,1.4-0.8,1.9-1.4c0.5-0.6,0.9-1.2,1.2-2
			c0.3-0.8,0.4-1.6,0.4-2.4v-0.1c0-0.8-0.1-1.6-0.4-2.4c-0.3-0.8-0.7-1.4-1.2-2c-0.5-0.6-1.2-1-1.9-1.4c-0.7-0.3-1.6-0.5-2.4-0.5
			c-0.9,0-1.7,0.2-2.4,0.5c-0.7,0.3-1.4,0.8-1.9,1.4c-0.5,0.6-0.9,1.2-1.2,2c-0.3,0.8-0.4,1.6-0.4,2.4v0.1c0,0.8,0.1,1.6,0.4,2.4
			c0.3,0.8,0.7,1.4,1.2,2c0.5,0.6,1.2,1,1.9,1.4C577.4,74.6,578.2,74.8,579.1,74.8z"/>
		<path class="st0" d="M541.8,56.8h9c2.1,0,4,0.3,5.6,0.9c1.6,0.6,3,1.4,4.1,2.4c1.1,1,2,2.2,2.6,3.7s0.9,3,0.9,4.7v0.1
			c0,1.7-0.3,3.3-0.9,4.7c-0.6,1.4-1.5,2.7-2.6,3.7c-1.1,1-2.5,1.9-4.2,2.5c-1.7,0.6-3.5,0.9-5.6,0.9h-8.9V56.8z M550.9,74.4
			c1.9,0,3.5-0.5,4.7-1.5c1.2-1,1.8-2.5,1.8-4.4v-0.1c0-1.9-0.6-3.3-1.8-4.4c-1.2-1-2.7-1.6-4.7-1.6h-2.6v11.9H550.9z"/>
		<path class="st0" d="M515.6,56.8h6.1l9.6,12.4V56.8h6.4v23.4h-5.7l-10-12.8v12.8h-6.4V56.8z"/>
		<path class="st0" d="M497.1,56.6h6.2l9.9,23.5h-6.9l-1.7-4.2h-9l-1.7,4.2h-6.8L497.1,56.6z M502.8,70.9l-2.6-6.6l-2.6,6.6H502.8z"
			/>
		<path class="st0" d="M468.5,56.8h6.5v17.7h11.3v5.7h-17.8V56.8z"/>
		<path class="st0" d="M444.5,56.8h11c1.8,0,3.3,0.2,4.6,0.7s2.3,1.1,3,1.9c1.4,1.3,2.1,3.1,2.1,5.4v0.1c0,1.8-0.4,3.3-1.3,4.5
			c-0.9,1.2-2,2.1-3.5,2.7l5.6,8.1h-7.5l-4.7-7.1h-0.1h-2.8v7.1h-6.5V56.8z M455.2,68c1.1,0,2-0.3,2.6-0.8c0.6-0.5,0.9-1.2,0.9-2
			v-0.1c0-0.9-0.3-1.6-0.9-2.1c-0.6-0.5-1.5-0.7-2.6-0.7h-4.2V68H455.2z"/>
		<path class="st0" d="M428.5,80.6c-1.8,0-3.5-0.3-5-1c-1.5-0.6-2.9-1.5-4-2.6c-1.1-1.1-2-2.4-2.6-3.8c-0.6-1.5-1-3-1-4.7v-0.1
			c0-1.7,0.3-3.2,1-4.7c0.6-1.5,1.5-2.8,2.7-3.9c1.1-1.1,2.5-2,4-2.6c1.5-0.6,3.2-1,5-1c1.8,0,3.5,0.3,5,1c1.5,0.6,2.9,1.5,4,2.6
			c1.1,1.1,2,2.4,2.6,3.8c0.6,1.5,1,3,1,4.7v0.1c0,1.7-0.3,3.2-1,4.7c-0.6,1.5-1.5,2.8-2.7,3.9c-1.1,1.1-2.5,2-4,2.6
			C431.9,80.3,430.3,80.6,428.5,80.6z M428.5,74.8c0.9,0,1.7-0.2,2.4-0.5c0.7-0.3,1.4-0.8,1.9-1.4c0.5-0.6,0.9-1.2,1.2-2
			c0.3-0.8,0.4-1.6,0.4-2.4v-0.1c0-0.8-0.1-1.6-0.4-2.4c-0.3-0.8-0.7-1.4-1.2-2c-0.5-0.6-1.2-1-1.9-1.4c-0.7-0.3-1.6-0.5-2.4-0.5
			c-0.9,0-1.7,0.2-2.4,0.5c-0.7,0.3-1.3,0.8-1.9,1.4c-0.5,0.6-0.9,1.2-1.2,2c-0.3,0.8-0.4,1.6-0.4,2.4v0.1c0,0.8,0.1,1.6,0.4,2.4
			c0.3,0.8,0.7,1.4,1.2,2c0.5,0.6,1.2,1,1.9,1.4C426.8,74.6,427.6,74.8,428.5,74.8z"/>
	</g>
	<g id="BAPTIST">
		<path class="st0" d="M391.8,60.6h-7.4v-3.8h19v3.8h-7.4v19.6h-4.1V60.6z"/>
		<path class="st0" d="M372.9,80.5c-1.8,0-3.5-0.3-5.2-0.9c-1.6-0.6-3.2-1.6-4.6-2.8l2.5-2.9c1.1,1,2.3,1.7,3.4,2.3
			c1.2,0.5,2.5,0.8,3.9,0.8c1.3,0,2.3-0.3,3-0.8c0.7-0.5,1.1-1.2,1.1-2.1v-0.1c0-0.4-0.1-0.8-0.2-1.1c-0.1-0.3-0.4-0.6-0.8-0.9
			c-0.4-0.3-0.9-0.6-1.6-0.8c-0.7-0.2-1.6-0.5-2.7-0.7c-1.2-0.3-2.4-0.6-3.3-1c-1-0.4-1.8-0.8-2.4-1.3c-0.7-0.5-1.2-1.2-1.5-1.9
			c-0.3-0.8-0.5-1.7-0.5-2.7v-0.1c0-1,0.2-1.9,0.6-2.8c0.4-0.8,0.9-1.5,1.6-2.1c0.7-0.6,1.5-1.1,2.5-1.4c1-0.3,2-0.5,3.2-0.5
			c1.7,0,3.3,0.2,4.6,0.8c1.4,0.5,2.7,1.2,3.9,2.2l-2.2,3.1c-1.1-0.8-2.1-1.4-3.2-1.8c-1-0.4-2.1-0.6-3.2-0.6
			c-1.2,0-2.1,0.3-2.8,0.8c-0.7,0.5-1,1.2-1,2v0.1c0,0.4,0.1,0.8,0.2,1.2c0.2,0.3,0.4,0.7,0.9,0.9c0.4,0.3,1,0.5,1.7,0.8
			c0.7,0.2,1.6,0.5,2.8,0.8c1.2,0.3,2.3,0.7,3.3,1c0.9,0.4,1.7,0.8,2.4,1.4c0.6,0.5,1.1,1.2,1.4,1.9c0.3,0.7,0.5,1.6,0.5,2.5v0.1
			c0,1.1-0.2,2.1-0.6,2.9c-0.4,0.9-1,1.6-1.7,2.2c-0.7,0.6-1.6,1.1-2.6,1.4C375.2,80.3,374.1,80.5,372.9,80.5z"/>
		<path class="st0" d="M354.3,56.8h4.1v23.4h-4.1V56.8z"/>
		<path class="st0" d="M338.2,60.6h-7.4v-3.8h19v3.8h-7.4v19.6h-4.1V60.6z"/>
		<path class="st0" d="M310.1,56.8h9.2c1.4,0,2.6,0.2,3.7,0.6c1.1,0.4,2,0.9,2.8,1.6c0.8,0.7,1.4,1.5,1.8,2.5c0.4,1,0.6,2,0.6,3.2
			v0.1c0,1.3-0.2,2.5-0.7,3.5c-0.5,1-1.2,1.8-2,2.5c-0.8,0.7-1.8,1.2-3,1.5c-1.1,0.3-2.4,0.5-3.6,0.5h-4.7v7.5h-4.1V56.8z M319,68.9
			c1.6,0,2.8-0.4,3.7-1.2c0.9-0.8,1.4-1.8,1.4-3v-0.1c0-1.4-0.5-2.4-1.4-3.1c-0.9-0.7-2.1-1.1-3.7-1.1h-4.8v8.4H319z"/>
		<path class="st0" d="M292,56.6h3.8l10.3,23.5h-4.3l-2.4-5.6h-11l-2.4,5.6h-4.2L292,56.6z M297.9,70.8l-4-9.3l-4,9.3H297.9z"/>
		<path class="st0" d="M259.7,56.8h10.5c2.7,0,4.7,0.7,6.1,2.1c1,1,1.6,2.3,1.6,3.9v0.1c0,0.7-0.1,1.3-0.3,1.9
			c-0.2,0.5-0.4,1-0.7,1.4c-0.3,0.4-0.7,0.8-1.1,1.1c-0.4,0.3-0.8,0.6-1.2,0.8c0.7,0.2,1.3,0.5,1.9,0.9c0.6,0.3,1.1,0.7,1.5,1.2
			c0.4,0.4,0.7,1,0.9,1.6c0.2,0.6,0.3,1.3,0.3,2.1v0.1c0,1-0.2,2-0.6,2.8c-0.4,0.8-1,1.5-1.8,2c-0.8,0.5-1.7,0.9-2.7,1.2
			c-1.1,0.3-2.2,0.4-3.5,0.4h-10.8V56.8z M269.3,66.6c1.3,0,2.4-0.3,3.2-0.8c0.8-0.5,1.2-1.3,1.2-2.4v-0.1c0-0.9-0.3-1.7-1-2.2
			c-0.7-0.5-1.7-0.8-3-0.8h-5.9v6.2H269.3z M270.5,76.5c1.4,0,2.5-0.3,3.3-0.8c0.8-0.5,1.2-1.3,1.2-2.4v-0.1c0-1-0.4-1.8-1.2-2.3
			c-0.8-0.5-2-0.8-3.6-0.8h-6.5v6.4H270.5z"/>
	</g>
	<g id="FIRST">
		<path class="st0" d="M233.8,60.6h-7.4v-3.8h19v3.8h-7.4v19.6h-4.1V60.6z"/>
		<path class="st0" d="M214.9,80.5c-1.8,0-3.5-0.3-5.2-0.9c-1.6-0.6-3.2-1.6-4.6-2.8l2.5-2.9c1.1,1,2.3,1.7,3.4,2.3
			c1.2,0.5,2.5,0.8,3.9,0.8c1.3,0,2.3-0.3,3-0.8c0.7-0.5,1.1-1.2,1.1-2.1v-0.1c0-0.4-0.1-0.8-0.2-1.1c-0.1-0.3-0.4-0.6-0.8-0.9
			c-0.4-0.3-0.9-0.6-1.6-0.8c-0.7-0.2-1.6-0.5-2.7-0.7c-1.2-0.3-2.4-0.6-3.3-1c-1-0.4-1.8-0.8-2.4-1.3c-0.7-0.5-1.2-1.2-1.5-1.9
			c-0.3-0.8-0.5-1.7-0.5-2.7v-0.1c0-1,0.2-1.9,0.6-2.8c0.4-0.8,0.9-1.5,1.6-2.1c0.7-0.6,1.5-1.1,2.5-1.4c1-0.3,2-0.5,3.2-0.5
			c1.7,0,3.3,0.2,4.6,0.8c1.4,0.5,2.7,1.2,3.9,2.2l-2.2,3.1c-1.1-0.8-2.1-1.4-3.2-1.8c-1-0.4-2.1-0.6-3.2-0.6
			c-1.2,0-2.1,0.3-2.8,0.8c-0.7,0.5-1,1.2-1,2v0.1c0,0.4,0.1,0.8,0.2,1.2c0.2,0.3,0.4,0.7,0.9,0.9c0.4,0.3,1,0.5,1.7,0.8
			c0.7,0.2,1.6,0.5,2.8,0.8c1.2,0.3,2.3,0.7,3.3,1c0.9,0.4,1.7,0.8,2.4,1.4c0.6,0.5,1.1,1.2,1.4,1.9c0.3,0.7,0.5,1.6,0.5,2.5v0.1
			c0,1.1-0.2,2.1-0.6,2.9c-0.4,0.9-1,1.6-1.7,2.2c-0.7,0.6-1.6,1.1-2.6,1.4C217.2,80.3,216.1,80.5,214.9,80.5z"/>
		<path class="st0" d="M182.5,56.8h10.4c1.5,0,2.8,0.2,3.9,0.6c1.1,0.4,2.1,1,2.8,1.7c0.6,0.6,1.1,1.4,1.4,2.2
			c0.3,0.8,0.5,1.8,0.5,2.8v0.1c0,1-0.1,1.8-0.4,2.6c-0.3,0.8-0.7,1.4-1.2,2c-0.5,0.6-1.1,1.1-1.8,1.5c-0.7,0.4-1.4,0.7-2.3,1
			l6.3,8.8h-4.8l-5.8-8.1h-0.1h-5.1v8.1h-4.1V56.8z M192.6,68.3c1.5,0,2.6-0.4,3.5-1.1c0.9-0.7,1.3-1.7,1.3-2.9v-0.1
			c0-1.3-0.4-2.2-1.3-2.9c-0.8-0.7-2-1-3.6-1h-6v7.9H192.6z"/>
		<path class="st0" d="M172.2,56.8h4.1v23.4h-4.1V56.8z"/>
		<path class="st0" d="M150.1,56.8h17.4v3.7h-13.3v6.4h11.8v3.7h-11.8v9.5h-4.1V56.8z"/>
	</g>
</g>
<g id="Rings__x26__Cross">
	<g id="Cross">
		<path class="st0" d="M74.3,89c0,2.7-2.2,4.9-4.9,4.9c-2.7,0-4.9-2.2-4.9-4.9c0-2.7,2.2-4.9,4.9-4.9C72.1,84.1,74.3,86.3,74.3,89"
			/>
		<path class="st0" d="M74.3,75.5c0,2.7-2.2,4.9-4.9,4.9c-2.7,0-4.9-2.2-4.9-4.9c0-2.7,2.2-4.9,4.9-4.9
			C72.1,70.6,74.3,72.8,74.3,75.5"/>
		<path class="st0" d="M83.2,67.3c-2.7,0-4.9-2.2-4.9-4.9c0-2.7,2.2-4.9,4.9-4.9c2.7,0,4.9,2.2,4.9,4.9
			C88.1,65.1,85.9,67.3,83.2,67.3"/>
		<path class="st0" d="M74.3,62.4c0,2.7-2.2,4.9-4.9,4.9c-2.7,0-4.9-2.2-4.9-4.9c0-2.7,2.2-4.9,4.9-4.9
			C72.1,57.5,74.3,59.7,74.3,62.4"/>
		<path class="st0" d="M55.6,67.3c-2.7,0-4.9-2.2-4.9-4.9c0-2.7,2.2-4.9,4.9-4.9c2.7,0,4.9,2.2,4.9,4.9
			C60.5,65.1,58.3,67.3,55.6,67.3"/>
		<path class="st0" d="M74.3,48.2c0,2.7-2.2,4.9-4.9,4.9c-2.7,0-4.9-2.2-4.9-4.9c0-2.7,2.2-4.9,4.9-4.9
			C72.1,43.3,74.3,45.5,74.3,48.2"/>
	</g>
	<g id="Rings">
		<path class="st0" d="M69.4,107.6c-21.6,0-39.2-17.6-39.2-39.2s17.6-39.2,39.2-39.2c21.6,0,39.2,17.6,39.2,39.2
			S91,107.6,69.4,107.6z M69.4,33.7c-19.1,0-34.7,15.6-34.7,34.7s15.6,34.7,34.7,34.7c19.1,0,34.7-15.6,34.7-34.7
			S88.5,33.7,69.4,33.7z"/>
		<path class="st0" d="M69.4,119.7c-28.2,0-51.2-23-51.2-51.2s23-51.2,51.2-51.2s51.2,23,51.2,51.2S97.6,119.7,69.4,119.7z
			 M69.4,21.7c-25.8,0-46.7,21-46.7,46.7c0,25.8,21,46.7,46.7,46.7c25.8,0,46.7-21,46.7-46.7C116.1,42.7,95.2,21.7,69.4,21.7z"/>
		<path class="st0" d="M69.4,131.5c-34.8,0-63.1-28.3-63.1-63.1S34.6,5.4,69.4,5.4c34.8,0,63.1,28.3,63.1,63.1
			S104.2,131.5,69.4,131.5z M69.4,9.4c-32.6,0-59.1,26.5-59.1,59.1s26.5,59.1,59.1,59.1c32.6,0,59.1-26.5,59.1-59.1
			S102,9.4,69.4,9.4z"/>
	</g>
</g>
</svg>
